<svg id="icon_the_global_fund_large" xmlns="http://www.w3.org/2000/svg" width="144.938" height="81" viewBox="0 0 144.938 81">
  <defs>
    <style>
      .cls-1 {
        fill: #af1e2d;
        fill-rule: evenodd;
      }
    </style>
  </defs>
  <path class="cls-1" d="M8.728,6.528H1.6V0.985H22.589V6.528h-7.13V23.9H8.728V6.528ZM26.24,0.985h6.731V9.442h7.872V0.985h6.731V23.9H40.843V14.7H33.028v9.2H26.3V0.985H26.24Zm25.555,0H69.421V6.3H58.355v3.829h10.5v4.4h-10.5v4.057H69.764V23.9H51.852V0.985H51.8ZM3.651,58.643H21.163v5.772H10.382v3.829h9.3v5.086h-9.3v8.286H3.651V58.643Zm21.79,13.486V58.643h6.731V71.9c0,2.8,1.54,4.572,3.993,4.572,2.4,0,3.993-1.829,3.993-4.572V58.643H46.89V72.129c0,6.057-4.335,9.886-10.724,9.886S25.442,78.187,25.442,72.129ZM51.51,58.643h7.244l7.53,14.229h0.342V58.643H72.9V81.558H65.657l-7.53-14.172H57.785V81.558H51.51V58.643Zm25.955,0H86.82c7.872,0,13.12,4.572,13.12,11.486,0,6.857-5.248,11.486-13.12,11.486H77.465V58.643ZM86.82,76.472a5.964,5.964,0,0,0,6.332-6.343,5.935,5.935,0,0,0-6.332-6.343h-2.8V76.529h2.8V76.472ZM1.027,41.271c0-7.086,5.419-11.886,12.835-11.886,5.419,0,9.983,3.029,11.066,7.257l-6.218,1.2c-0.57-1.714-2.624-2.971-4.906-2.971-3.537,0-6.047,2.629-6.047,6.4a6.194,6.194,0,0,0,6.332,6.515c2.909,0,5.305-1.772,5.476-4.229L11.808,43.5V39.557h14.2c0.856,8.115-4.335,13.772-12.15,13.772C6.446,53.272,1.027,48.357,1.027,41.271ZM29.948,29.785h6.731V46.929h9.868V52.7h-16.6V29.785ZM49.057,41.271c0-7.314,5.191-11.886,12.835-11.886s12.835,4.629,12.835,11.886S69.536,53.215,61.892,53.215C54.191,53.215,49.057,48.586,49.057,41.271Zm18.881,0c0-3.829-2.453-6.4-6.046-6.4s-6.1,2.572-6.1,6.4c0,3.886,2.51,6.4,6.1,6.4S67.938,45.157,67.938,41.271ZM78.32,29.785H90.071c5.419,0,8.613,2.514,8.613,6.343a4.955,4.955,0,0,1-3.308,4.743v0.343a5.357,5.357,0,0,1,3.936,5.372c0,3.943-3.309,6.172-8.613,6.172H78.377V29.785H78.32Zm10.439,9.2c1.711,0,2.966-.914,2.966-2.171s-1.2-2.172-2.966-2.172H85.108v4.343h3.651Zm0.4,8.857c1.768,0,3.137-.971,3.137-2.343s-1.369-2.343-3.137-2.343H85.051v4.686h4.107ZM108.5,29.785h9.925l7.13,22.915h-6.959l-1.084-3.486h-8.214L108.21,52.7h-6.9Zm7.758,14.629L113.63,35.5h-0.343l-2.624,8.915h5.591Zm13.119-14.629H136.1V46.929h9.869V52.7h-16.6V29.785h0Z" transform="translate(-1.031 -1)"/>
</svg>
