<svg height="81.5" viewBox="0 0 165 81.5" width="165" xmlns="http://www.w3.org/2000/svg"><path d="m69.97 22.057c-4.727-.35-8.738 2.641-10.976 2.641-2.27 0-5.77-2.565-9.482-2.495a14.053 14.053 0 0 0 -11.877 7.2c-5.061 8.786-1.292 21.8 3.638 28.933 2.411 3.483 5.288 7.409 9.066 7.266 3.636-.144 5.012-2.352 9.408-2.352s5.632 2.352 9.477 2.282c3.914-.073 6.394-3.555 8.788-7.059a31.484 31.484 0 0 0 3.976-8.166 12.67 12.67 0 0 1 -7.7-11.618c-.068-7.266 5.93-10.758 6.2-10.927a13.47 13.47 0 0 0 -10.518-5.705zm-2.917-4.706a12.619 12.619 0 0 0 2.987-9.167 12.861 12.861 0 0 0 -8.457 4.35c-1.856 2.148-3.485 5.589-3.043 8.881 3.22.249 6.507-1.636 8.513-4.064zm-58.853 24.503a50.206 50.206 0 0 1 14.811-35.654l-5.1-5.093a57.5 57.5 0 0 0 0 81.493l5.1-5.093a50.143 50.143 0 0 1 -14.811-35.653m90.724-40.749-5.119 5.095a50.294 50.294 0 0 1 0 71.308l5.119 5.092a57.513 57.513 0 0 0 0-81.494m24.317 29.5h-4.632v-26.982h6.5c5.2 0 7.845 2.2 7.845 7.961 0 4.332-1.678 6.091-3.245 6.8l3.921 12.223h-4.71l-3.288-11.174a21.39 21.39 0 0 1 -2.39.113v11.061zm0-14.873h1.644c2.507 0 3.44-.932 3.44-4.149s-.933-4.15-3.44-4.15h-1.644v8.3zm13.014 14.873v-26.982h12.415v4.038h-7.781v6.948h5.98v4.04h-5.98v7.922h8.3v4.036h-12.93zm15.562-26.982h6.874c4.787 0 7.323 2.617 7.323 8.147v10.694c0 5.528-2.536 8.142-7.323 8.142h-6.874zm4.633 23.176h1.6c2.472 0 3.33-.94 3.33-3.779v-11.81c0-2.842-.858-3.776-3.33-3.776h-1.6z" fill="#af1e2d" fill-rule="evenodd" transform="translate(-1 -1.094)"/></svg>