<svg height="80.906" viewBox="0 0 68.25 80.906" width="68.25" xmlns="http://www.w3.org/2000/svg"><path d="m50.518 73.886a57.715 57.715 0 0 1 -5.066 6.351c-1.908 1.868-7.978 2.644-8.776 1.538-1.56-2.163-.01-2.293-1.53-5.138-1.171-2.192-1.557-1.19-1.966-4.317-.691-5.288-2.049-5.564-2.989-9.252-.059-.237.059-.5-.014-.734-.548-1.767 1.188-4 1.608-5.48.573-2.015-.5-4.837-1.208-6.573-.2-.5-.342-1.037-.5-1.561-.84-2.776-3.528-2.385-2.266-5.895a5.546 5.546 0 0 0 .252-2.46 2.8 2.8 0 0 0 -1.365-2.4 2.321 2.321 0 0 0 -1.607-.056c-.377.059-.706.627-1.051.463-.384-.181-.251-.844-.5-1.2a2.333 2.333 0 0 0 -1.066-1.014c-1.951-.575-2.238-.4-3.881.382a6.148 6.148 0 0 1 -3.838.829c-1.841-.077-1.836.337-3.517.625-2.684.459-4.854-2.257-5.753-3.68a23.93 23.93 0 0 1 -1.331-2.034c-.715-1.442-.545-1.533-1.843-2.249a1.355 1.355 0 0 1 -1-1.044c-.122-.509.688-1 .5-1.487-.608-1.6-.323-1.32.243-2.6.112-.254.041-.561.131-.822.841-2.447-.543-3.61-.252-4.768.457-1.822 3.041-5.365 3.841-6.741.906-1.559-.03-.723.885-1.106 3-1.258 1.578-1.527 3.011-4.4.664-1.336.882-.946 2.077-1.908.854-.686.494-1.771 1.559-1.907 1.675-.214.473.54 2.262.6a4.5 4.5 0 0 0 1.627.019c1.519-.533 3.033-1.7 5.178-1.758 2.084-.06 4.4-1.375 6.244-.372 1.117.61-.377 3.1.172 3.756.839 1 1.989.679 3.218 1.2 1.848.784.6.7 2.31 1.659 4.213 2.354 2.461-.547 4.23-1.763 1.632-1.122 2.508.383 3.91 1.242a1.521 1.521 0 0 0 .518.053 16.192 16.192 0 0 0 3.859.592c1.694-.034 1.6-1.1 3.075-.084 1.175.815-.255.792.055 2.3s2.779 4.709 3.194 6.428a2.209 2.209 0 0 0 .819.653c.2.211 2.152 5.463 2.353 5.666 1.391 1.4.2.187 1.12 1.852.608 1.1.232.575 1.244 1.273.823.568.137-.171 1.153.751a5.171 5.171 0 0 1 .822.978c.731 1.007-.093 2.107 1.07 2.807 3.921 2.373 6.084-2.009 7.554-.328 1.182 1.351-1.842 5.18-2.656 6.849-1.954 4-6.841 5.43-8.976 10.508-1.623 3.855 1.105 5.817.617 7.519a.707.707 0 0 0 .113.351c.1.369.218.734.3 1.108 1.121 5.169-2.021 4.232-4.488 7.077-2.873 3.316-1.132 1.583-.893 4.616a2.133 2.133 0 0 1 -.358 1.663c-.813 1.14-1.583 2.314-2.435 3.424m-3.717 3.75s-.017 0-.017 0a.021.021 0 0 1 .018-.017c.005 0 0 .014 0 .019m20.824-19.987c-5.544 1.288-4.724 3.258-5.264 5.023-.623 2.032.731 1.473-.458 4.021-.486 1.044-1.639 3.235-.16 4.695 2.961 2.917 3.928-3.822 4.428-5.2 1.173-3.228 4.926-9.347 1.454-8.539" fill="#af1e2d" fill-rule="evenodd" transform="translate(-1.313 -1.375)"/></svg>